Coordinates
version=1
nRows=21
nColumns=38
inDegrees=no

Units are S.I. units (second, meters, Newtons, ...)
If the header above contains a line with 'inDegrees', this indicates whether rotational values are in degrees (yes) or radians (no).

endheader
time	pelvis_tilt	pelvis_list	pelvis_rotation	pelvis_tx	pelvis_ty	pelvis_tz	hip_flexion_r	hip_adduction_r	hip_rotation_r	knee_angle_r	ankle_angle_r	subtalar_angle_r	mtp_angle_r	hip_flexion_l	hip_adduction_l	hip_rotation_l	knee_angle_l	ankle_angle_l	subtalar_angle_l	mtp_angle_l	lumbar_extension	lumbar_bending	lumbar_rotation	arm_flex_r	arm_add_r	arm_rot_r	elbow_flex_r	pro_sup_r	wrist_flex_r	wrist_dev_r	arm_flex_l	arm_add_l	arm_rot_l	elbow_flex_l	pro_sup_l	wrist_flex_l	wrist_dev_l
1.38	-0.806638	1.43032	-0.927892	0.843117	-0.232005	0.96639	-0.205791	0.117217	-0.00417444	0.309064	0.233612	0	0	0.219054	-0.194156	-0.0695098	0.0537563	0.523599	0	0	-0.175398	0.131782	0.122952	0.284557	-0.445948	0.116138	1.13735	0.981345	0	0	0.188858	-0.310928	-0.0227087	1.2146	0.96417	0	0
1.39	-0.885045	1.42922	-0.849993	0.844118	-0.245112	0.964183	-0.215487	0.123058	-0.00269918	0.306409	0.236718	0	0	0.218196	-0.199431	-0.0880249	0	0.523599	0	0	-0.162289	0.141871	0.122164	0.281184	-0.448136	0.118528	1.13819	0.979624	0	0	0.184341	-0.309353	-0.0234345	1.21394	0.963719	0	0
1.4	-0.930098	1.42777	-0.810334	0.844908	-0.256718	0.96234	-0.224608	0.124697	0.00111085	0.307109	0.238923	0	0	0.24034	-0.197709	-0.0962193	0	0.523599	0	0	-0.156639	0.147389	0.124685	0.282847	-0.44897	0.123674	1.13721	0.976272	0	0	0.182293	-0.308401	-0.0246024	1.21169	0.963072	0	0
1.41	-0.963742	1.42486	-0.774714	0.846042	-0.269562	0.960345	-0.237606	0.126933	0.00138597	0.309669	0.242186	0	0	0.252716	-0.201227	-0.108329	0	0.523599	0	0	-0.146426	0.152782	0.120995	0.281123	-0.448292	0.125902	1.1333	0.974676	0	0	0.179505	-0.307564	-0.0253528	1.20811	0.962823	0	0
1.42	-0.96452	1.42949	-0.767864	0.847013	-0.279846	0.959293	-0.241374	0.12247	0.00161048	0.316152	0.243827	0	0	0.261168	-0.198524	-0.0340691	0	0.251909	0	0	-0.14625	0.145275	0.115058	0.288521	-0.440193	0.123524	1.12257	0.976999	0	0	0.187644	-0.309952	-0.0242668	1.20176	0.963379	0	0
1.43	-1.08347	1.43498	-0.635472	0.848566	-0.289179	0.956683	-0.227132	0.130486	-0.00142484	0.330886	0.247422	0	0	0.291156	-0.214865	0.159258	0	-0.0834227	0	0	-0.129461	0.149698	0.101618	0.29342	-0.432473	0.118967	1.11268	0.980125	0	0	0.194179	-0.310926	-0.0231676	1.19445	0.964174	0	0
1.44	-1.15457	1.43969	-0.527887	0.85303	-0.295926	0.954397	-0.21431	0.13728	-0.0125193	0.346292	0.251107	0	0	0.324951	-0.201298	0.301867	0	-0.47177	0	0	-0.129131	0.14929	0.0714363	0.310944	-0.429623	0.112492	1.10224	0.985148	0	0	0.221778	-0.311759	-0.0158562	1.18953	0.96569	0	0
1.45	-1.71204	1.4341	0.070355	0.858623	-0.306763	0.945306	-0.130234	0.160526	-0.0589777	0.38512	0.265993	0	0	0.421569	-0.214876	0.670896	0	-0.692225	0	0	-0.0355746	0.177127	0.0217004	0.302757	-0.419449	0.0991178	1.08451	1.01823	0	0	0.208904	-0.306517	-0.0210206	1.17658	0.977667	0	0
1.46	-1.68835	1.43208	0.0465524	0.859917	-0.320519	0.943234	-0.144909	0.158876	-0.0562706	0.395117	0.269378	0	0	0.416715	-0.213112	0.671443	0	-0.692498	0	0	-0.0342894	0.177505	0.0207724	0.301986	-0.418764	0.0981684	1.083	1.0206	0	0	0.209373	-0.306754	-0.0198835	1.17535	0.976909	0	0
1.47	-1.65124	1.4293	0.033726	0.864708	-0.333482	0.940569	-0.159302	0.160715	-0.0669768	0.407211	0.276248	0	0	0.419134	-0.194687	0.617179	0	-0.697785	0	0	-0.0367327	0.181151	-0.00100863	0.306837	-0.427174	0.0944672	1.08735	1.02297	0	0	0.219864	-0.303357	-0.014485	1.17701	0.975589	0	0
1.48	-1.5491	1.44038	-0.0871981	0.863935	-0.348711	0.939684	-0.184005	0.140062	-0.0545409	0.423481	0.27889	0	0	0.385725	-0.189904	0.656702	0	-0.696257	0	0	-0.0476541	0.164005	0.016821	0.3033	-0.42097	0.0938002	1.08279	1.01963	0	0	0.217165	-0.306957	-0.0150943	1.17735	0.974821	0	0
1.49	-1.4425	1.44929	-0.194503	0.865693	-0.363661	0.938101	-0.205072	0.122592	-0.0546005	0.442608	0.283443	0	0	0.359808	-0.172957	0.648869	0	-0.698132	0	0	-0.0559619	0.149405	0.01801	0.301369	-0.420738	0.0922077	1.08276	1.01733	0	0	0.219171	-0.308569	-0.0129455	1.17878	0.975184	0	0
1.5	-1.27392	1.46112	-0.379807	0.865605	-0.379393	0.937155	-0.227924	0.0946713	-0.0474086	0.466912	0.286492	0	0	0.320056	-0.157951	0.658492	0	-0.698132	0	0	-0.0666993	0.126095	0.0341848	0.295618	-0.414786	0.0876962	1.08065	1.02193	0	0	0.216798	-0.313105	-0.0115152	1.18039	0.974581	0	0
1.51	-1.07571	1.46993	-0.59514	0.86533	-0.395335	0.936007	-0.246632	0.0650188	-0.0418066	0.496527	0.288404	0	0	0.282047	-0.140091	0.644432	0	-0.698132	0	0	-0.0755681	0.101832	0.0503816	0.289819	-0.409266	0.0844651	1.07899	1.02422	0	0	0.214646	-0.318468	-0.00920137	1.18214	0.975087	0	0
1.52	-0.914349	1.47501	-0.771332	0.865519	-0.410843	0.934292	-0.255352	0.0385003	-0.0400505	0.533294	0.288146	0	0	0.253997	-0.125533	0.651251	0	-0.698132	0	0	-0.078013	0.0820858	0.0631326	0.285167	-0.403525	0.0827346	1.07595	1.02726	0	0	0.21132	-0.323352	-0.00871541	1.18376	0.975959	0	0
1.53	-0.812836	1.47845	-0.883163	0.866304	-0.425809	0.931839	-0.25354	0.0170441	-0.0405482	0.57738	0.28371	0	0	0.238837	-0.115673	0.673435	0	-0.696045	0	0	-0.0752279	0.0683066	0.0700433	0.283814	-0.397794	0.0814516	1.07119	1.03153	0	0	0.208123	-0.326266	-0.0111244	1.18472	0.976402	0	0
1.54	-0.715209	1.48121	-0.985111	0.868261	-0.43979	0.929704	-0.245579	-0.00244751	-0.0380918	0.626961	0.270668	0	0	0.231545	-0.105004	0.690547	0	-0.695272	0	0	-0.0761901	0.0566997	0.0713318	0.287324	-0.394221	0.079725	1.06702	1.03097	0	0	0.209912	-0.325702	-0.013079	1.18551	0.974145	0	0
1.55	-0.514344	1.48156	-1.19264	0.870368	-0.453258	0.929209	-0.237905	-0.0297343	-0.0303862	0.681077	0.245371	0	0	0.217746	-0.087655	0.693325	0	-0.695789	0	0	-0.0853972	0.0368113	0.0763309	0.290941	-0.390008	0.0759377	1.06463	1.02795	0	0	0.216032	-0.325244	-0.0112803	1.18376	0.971583	0	0
1.56	-0.218875	1.47541	-1.49796	0.871818	-0.466531	0.930413	-0.22956	-0.0661152	-0.017348	0.739021	0.208745	0	0	0.195866	-0.0608906	0.680857	0	-0.697454	0	0	-0.100285	0.00579664	0.0866576	0.293749	-0.385335	0.0705138	1.06324	1.02512	0	0	0.22734	-0.327834	-0.00312206	1.17789	0.974719	0	0
1.57	0.0403621	1.4603	-1.77183	0.872136	-0.479717	0.932439	-0.219533	-0.102894	0.0029789	0.797822	0.164908	0	0	0.168662	-0.0329884	0.655204	0	-0.698132	0	0	-0.114278	-0.0302893	0.10312	0.294957	-0.380985	0.0671115	1.06074	1.02617	0	0	0.240634	-0.334403	0.0112145	1.16829	0.980877	0	0
1.58	0.223174	1.44633	-1.96553	0.872045	-0.493005	0.934197	-0.202226	-0.132354	0.0294313	0.853606	0.118285	0	0	0.148054	-0.0132115	0.626115	0	-0.698132	0	0	-0.122083	-0.0607973	0.117871	0.297258	-0.382162	0.0698326	1.05684	1.02889	0	0	0.253022	-0.33959	0.0253192	1.15779	0.986544	0	0
